<svg id="bible" enable-background="new 0 0 512 512" height="512" viewBox="0 0 512 512" width="512"
    xmlns="http://www.w3.org/2000/svg">
    <g>
        <path
            d="m380.014 71.18c-49.933 0-99.922 23.474-124.014 68.278-24.091-44.803-74.081-68.278-124.014-68.278-46.626 0-93.769 19.395-127.592 53.218l21.211 21.211 230.395 70.536 230.395-70.536 21.211-21.211c-33.824-33.823-80.966-53.218-127.592-53.218z"
            fill="#ececf1" />
        <path
            d="m507.605 124.398c-33.823-33.823-80.965-53.218-127.591-53.218-49.933 0-99.922 23.474-124.014 68.278v76.687l230.395-70.536z"
            fill="#cfdde2" />
        <path
            d="m256 .004c-8.291 0-15 6.709-15 15v30c0 8.291 6.709 15 15 15s15-6.709 15-15v-30c0-8.291-6.709-15-15-15z"
            fill="#ffe470" />
        <path
            d="m497 120.004c-80.845 0-162.777 19.102-235.038 55.254l-5.962 2.977-5.962-2.977c-72.261-36.153-154.193-55.254-235.038-55.254-8.291 0-15 6.709-15 15v302c0 8.291 6.709 15 15 15 76.201 0 153.49 18.018 221.62 52.09l12.671 6.328c2.135 1.06 4.427 1.575 6.709 1.575 2.303 0 4.596-.526 6.709-1.575l12.671-6.328c68.13-34.072 145.419-52.09 221.62-52.09 8.291 0 15-6.709 15-15v-302c0-8.291-6.709-15-15-15z"
            fill="#704c55" />
        <path
            d="m262.709 510.422 12.671-6.328c68.13-34.072 145.419-52.09 221.62-52.09 8.291 0 15-6.709 15-15v-302c0-8.291-6.709-15-15-15-80.845 0-162.777 19.102-235.038 55.254l-5.962 2.977v333.761c2.303 0 4.596-.525 6.709-1.574z"
            fill="#4b2746" />
        <path
            d="m185.395 55.609-30-30c-5.859-5.859-5.859-15.352 0-21.211s15.352-5.859 21.211 0l30 30c5.859 5.859 5.859 15.352 0 21.211-5.86 5.859-15.352 5.86-21.211 0z"
            fill="#ffe470" />
        <path d="m271 45.004v-30c0-8.291-6.709-15-15-15v60c8.291 0 15-6.709 15-15z" fill="#ffc473" />
        <path
            d="m305.395 55.609c-5.859-5.859-5.859-15.352 0-21.211l30-30c5.859-5.859 15.352-5.859 21.211 0s5.859 15.352 0 21.211l-30 30c-5.86 5.859-15.352 5.86-21.211 0z"
            fill="#ffc473" />
        <path
            d="m434.228 244.666c-14.518 1.729-28.911 4.285-43.228 7.218v-25.88c0-8.291-6.709-15-15-15s-15 6.709-15 15v32.943c-17.003 4.539-33.836 9.723-50.303 15.954-7.749 2.93-11.66 11.587-8.73 19.336 2.955 7.815 11.675 11.627 19.336 8.73 13.022-4.926 26.31-9.089 39.697-12.898v85.935c0 8.291 6.709 15 15 15s15-6.709 15-15v-93.457c15.465-3.371 31.047-6.216 46.772-8.086 8.218-.981 14.106-8.438 13.125-16.67-.981-8.218-8.481-14.224-16.669-13.125z"
            fill="#ffe470" />
        <path
            d="m391 376.004v-93.457c15.465-3.371 31.047-6.216 46.772-8.086 8.218-.981 14.106-8.438 13.125-16.67-.981-8.218-8.481-14.224-16.67-13.125-14.518 1.729-28.911 4.285-43.228 7.218v-25.88c0-8.291-6.709-15-15-15v180c8.292 0 15.001-6.709 15.001-15z"
            fill="#ffc473" />
    </g>
</svg>